<?xml version="1.0" standalone="no"?><!DOCTYPE svg PUBLIC "-//W3C//DTD SVG 1.1//EN" "http://www.w3.org/Graphics/SVG/1.1/DTD/svg11.dtd"><svg t="1742015248685" class="icon" viewBox="0 0 1024 1024" version="1.1" xmlns="http://www.w3.org/2000/svg" p-id="23093" xmlns:xlink="http://www.w3.org/1999/xlink" width="200" height="200"><path d="M913.066667 320c34.133333 34.133333 34.133333 89.6 0 119.466667l-119.466667 119.466666-332.8-332.8 119.466667-119.466666c34.133333-34.133333 89.6-34.133333 119.466666 0l76.8 76.8 128-128 59.733334 59.733333-128 128 76.8 76.8m-247.466667 247.466667l-59.733333-59.733334-119.466667 119.466667-89.6-89.6 119.466667-119.466667-59.733334-59.733333-119.466666 119.466667-64-59.733334-119.466667 119.466667c-34.133333 34.133333-34.133333 89.6 0 119.466667l76.8 76.8-170.666667 170.666666 59.733334 59.733334 170.666666-170.666667 76.8 76.8c34.133333 34.133333 89.6 34.133333 119.466667 0l119.466667-119.466667-59.733334-59.733333 119.466667-123.733333z" p-id="23094"></path></svg>