<?xml version="1.0" standalone="no"?><!DOCTYPE svg PUBLIC "-//W3C//DTD SVG 1.1//EN" "http://www.w3.org/Graphics/SVG/1.1/DTD/svg11.dtd"><svg t="1742028325560" class="icon" viewBox="0 0 1024 1024" version="1.1" xmlns="http://www.w3.org/2000/svg" p-id="3411" xmlns:xlink="http://www.w3.org/1999/xlink" width="200" height="200"><path d="M807.253 360.107h-25.258V259.755c0-138.923-112.64-251.222-251.222-251.222-138.922 0-251.221 112.64-251.221 251.222v100.352h-25.259c-83.285 0-150.869 67.584-150.869 150.869v351.915c0 83.285 67.584 150.869 150.87 150.869h552.618c83.285 0 150.87-67.584 150.87-150.87V510.977c0.34-83.285-67.243-150.87-150.529-150.87z m-238.592 402.09c0 20.822-16.725 37.547-37.546 37.547s-37.547-16.725-37.547-37.547V611.328c0-20.821 16.725-37.547 37.547-37.547s37.546 16.726 37.546 37.547v150.87z m-213.674-402.09V259.755c0-97.28 78.848-175.787 175.786-175.787 97.28 0 175.787 78.848 175.787 175.787v100.352H354.987z" p-id="3412"></path></svg>