<?xml version="1.0" standalone="no"?><!DOCTYPE svg PUBLIC "-//W3C//DTD SVG 1.1//EN" "http://www.w3.org/Graphics/SVG/1.1/DTD/svg11.dtd"><svg t="1742007490233" class="icon" viewBox="0 0 1024 1024" version="1.1" xmlns="http://www.w3.org/2000/svg" p-id="5582" xmlns:xlink="http://www.w3.org/1999/xlink" width="200" height="200"><path d="M554.666667 512c0 23.466667 19.2 42.666667 42.666666 42.666667h122.026667c-19.2 73.386667-85.333333 128-164.693333 128-94.293333 0-170.666667-76.373333-170.666667-170.666667s76.373333-170.666667 170.666667-170.666667c79.36 0 145.493333 54.613333 164.693333 128H597.333333c-23.466667 0-42.666667 19.2-42.666666 42.666667z m469.333333-213.333333v426.666666c0 87.466667-52.906667 162.133333-128 195.413334V981.333333c0 23.466667-19.2 42.666667-42.666667 42.666667s-42.666667-19.2-42.666666-42.666667v-42.666666H213.333333v42.666666c0 23.466667-19.2 42.666667-42.666666 42.666667s-42.666667-19.2-42.666667-42.666667v-60.586666c-75.093333-32.853333-128-107.946667-128-195.413334h85.333333c23.466667 0 42.666667-19.2 42.666667-42.666666s-19.2-42.666667-42.666667-42.666667H0V384h85.333333c23.466667 0 42.666667-19.2 42.666667-42.666667s-19.2-42.666667-42.666667-42.666666H0c0-117.76 95.573333-213.333333 213.333333-213.333334h597.333334c117.76 0 213.333333 95.573333 213.333333 213.333334z m-213.333333 213.333333c0-141.226667-114.773333-256-256-256s-256 114.773333-256 256 114.773333 256 256 256 256-114.773333 256-256z" p-id="5583"></path></svg>